<?xml version="1.0" standalone="no"?><!DOCTYPE svg PUBLIC "-//W3C//DTD SVG 1.1//EN" "http://www.w3.org/Graphics/SVG/1.1/DTD/svg11.dtd"><svg t="1567347930932" class="icon" viewBox="0 0 1024 1024" version="1.1" xmlns="http://www.w3.org/2000/svg" p-id="38420" xmlns:xlink="http://www.w3.org/1999/xlink" width="32" height="32"><defs><style type="text/css"></style></defs><path d="M960 304.25v417.7l-215.1-208.9L960 304.25z m-509 275.4l-382.3-370c8.6-19.8 28.3-33.601 51.3-33.601h784.1c22.2 0 41.5 13 50.5 31.801l-381.5 371.7c-34.1 33.001-88.1 33.001-122.1 0.1z m242.4-16.6l261.2 252.8c-8.899 19-28.199 32.101-50.6 32.101H120c-22.3 0-41.6-13.101-50.6-32.101l261.3-252.8 70.1 68.101c61.9 60.1 160.5 60.1 222.4 0l70.2-68.101z m-414.2-49.9L64 722.051V304.25l215.2 208.9z" p-id="38421" fill="#999999"></path></svg>