<?xml version="1.0" standalone="no"?><!DOCTYPE svg PUBLIC "-//W3C//DTD SVG 1.1//EN" "http://www.w3.org/Graphics/SVG/1.1/DTD/svg11.dtd"><svg t="1567347992676" class="icon" viewBox="0 0 1024 1024" version="1.1" xmlns="http://www.w3.org/2000/svg" p-id="1704" xmlns:xlink="http://www.w3.org/1999/xlink" width="32" height="32"><defs><style type="text/css"></style></defs><path d="M0 525.184c0 223.584 143.296 413.696 343.008 483.488 26.88 6.784 22.784-12.416 22.784-25.376v-88.704c-155.296 18.208-161.504-84.608-172-101.696-21.088-36-70.816-45.184-56-62.304 35.392-18.208 71.392 4.608 113.12 66.304 30.208 44.704 89.088 37.216 119.008 29.696a144.64 144.64 0 0 1 39.712-69.6c-160.8-28.8-227.904-126.976-227.904-243.808 0-56.608 18.688-108.704 55.296-150.688-23.296-69.312 2.208-128.512 5.6-137.312 66.496-5.984 135.52 47.584 140.896 51.808 37.792-10.208 80.896-15.616 129.088-15.616 48.48 0 91.808 5.6 129.792 15.904 12.896-9.792 76.992-55.808 138.816-50.208 3.296 8.8 28.192 66.688 6.304 135.008 37.12 42.112 56 94.624 56 151.392 0 116.992-67.488 215.296-228.8 243.68a146.048 146.048 0 0 1 43.584 104.192v128.8c0.896 10.304 0 20.512 17.216 20.512C878.112 942.368 1024 750.848 1024 525.248c0-282.912-229.312-512-512-512C229.056 13.152-0.032 242.24-0.032 525.152z" p-id="1705" fill="#999999"></path></svg>