<?xml version="1.0" standalone="no"?><!DOCTYPE svg PUBLIC "-//W3C//DTD SVG 1.1//EN" "http://www.w3.org/Graphics/SVG/1.1/DTD/svg11.dtd"><svg t="1567502211338" class="icon" viewBox="0 0 1024 1024" version="1.1" xmlns="http://www.w3.org/2000/svg" p-id="1240" width="22" height="22" xmlns:xlink="http://www.w3.org/1999/xlink"><defs><style type="text/css"></style></defs><path d="M672 320C672 408.128 600.128 480 512 480 423.872 480 352 408.128 352 320 352 231.872 423.872 160 512 160 600.128 160 672 231.872 672 320M512 0C335.136 0 192 143.136 192 320 192 358.112 196.384 397.504 212.64 431.872L440.736 915.616C453.248 943.136 482.016 960 512 960 542.016 960 570.752 943.136 583.872 915.616L811.36 431.872C827.616 397.504 832 358.112 832 320 832 143.136 688.864 0 512 0" p-id="1241" fill="#999999"></path></svg>